<svg width="350" height="287" viewBox="0 0 350 287" fill="none" xmlns="http://www.w3.org/2000/svg">
<path d="M278.261 143.428C238.866 143.428 206.792 175.502 206.792 214.897C206.792 254.292 238.866 286.365 278.261 286.365C297.958 286.365 316.958 278.173 330.206 263.705L286.977 218.383L349.729 214.897L283.49 209.667L278.261 143.428Z" fill="#FF386A"/>
<path d="M349.73 214.897C349.556 175.502 317.656 143.603 278.261 143.428V214.897H349.73Z" fill="#FFC700"/>
<path d="M278.261 214.897L330.207 263.705C342.758 250.457 349.73 233.025 349.73 214.897H278.261Z" fill="#90B6FF"/>
<path d="M11.7379 23.7891H10.2729V143.224H11.7379V23.7891Z" fill="#D6D7D8"/>
<path d="M204.013 142.858H10.6401V144.323H204.013V142.858Z" fill="#D6D7D8"/>
<path d="M14.6677 140.293H7.34302V147.621H14.6677V140.293Z" fill="#D6D7D8"/>
<path d="M0 25.2544L11.0061 14.2444L22.0122 25.2544H0Z" fill="#D6D7D8"/>
<path d="M202.172 132.214L213.178 143.224L202.172 154.234V132.214Z" fill="#D6D7D8"/>
<path d="M45.0665 34.0471H43.6016V128.57H45.0665V34.0471Z" fill="#EEEEEE"/>
<path d="M87.5492 34.0471H86.0842V128.57H87.5492V34.0471Z" fill="#EEEEEE"/>
<path d="M130.033 34.0471H128.568V128.57H130.033V34.0471Z" fill="#EEEEEE"/>
<path d="M172.515 34.0471H171.051V128.57H172.515V34.0471Z" fill="#EEEEEE"/>
<path d="M197.787 59.3264H27.8533V60.7919H197.787V59.3264Z" fill="#EEEEEE"/>
<path d="M197.787 101.825H27.8533V103.29H197.787V101.825Z" fill="#EEEEEE"/>
<path d="M170.754 97.256L171.918 95.0316L118.836 67.4676L90.4757 76.8845L51.2826 42.2424L49.6114 44.119L89.8919 79.7227L118.619 70.1844L170.754 97.256Z" fill="#FFC700"/>
<path d="M199.121 99.8726C199.121 99.8726 191.437 101.132 184.357 100.177C177.277 99.2212 177.079 98.5328 175.905 94.8647C174.731 91.1952 174.106 85.9691 173.984 84.3521C173.918 82.7774 171.876 81.6819 170.689 85.2706C169.545 88.8015 173.179 92.8943 170.529 93.6722C167.836 94.5073 161.12 91.7624 156.364 89.1541C151.564 86.603 148.936 85.3332 150.309 93.3687C151.739 101.447 155.222 107.4 171.692 108.277C188.203 109.096 199.249 115.672 203.875 118.452L199.121 99.8726Z" fill="#FFBEB6"/>
<path d="M175.321 243.179H155.218C155.218 243.179 159.294 174.668 161.201 155.659C163.117 136.553 164.285 129.73 190.401 127.173C220.223 124.255 238.349 124.312 238.349 124.312L208.3 149.671C201.276 155.599 198.226 165 200.432 173.923L200.785 175.351C202.088 180.622 201.577 186.18 199.334 191.125L188.786 214.377C188.785 214.375 190.498 233.808 175.321 243.179Z" fill="url(#paint0_linear_47_32)"/>
<path d="M283.675 129.745C282.654 133.699 282.943 151.526 262.611 155.438C239.044 159.972 224.829 159.04 218.016 160.898C212.479 162.408 210.886 164.522 211.472 168.45C212.059 172.37 217.676 176.922 219.443 184.377C221.21 191.832 217.881 196.505 225.04 205.717C232.023 214.703 236.263 223.619 229.823 243.18L208.446 243.181C208.446 243.181 170.002 169.2 168.041 153.704C166.081 138.209 177.701 134.744 183.194 133.17C185.274 132.57 192.206 130.66 206.284 127.206C209.297 129.234 216.037 133.027 222.256 131.333C230.575 129.06 232.462 125.846 242.108 128.119C247.828 129.466 258.007 131.28 266.166 128.339C271.958 129.27 277.811 129.74 283.675 129.745Z" fill="#428DFC"/>
<path d="M267.722 42.2011C264.302 44.1196 261.231 46.6074 258.643 49.5549L258.35 49.7817C257.972 45.9136 257.019 42.1257 255.523 38.5403C258.669 38.327 262.409 37.0269 266.716 33.8398C266.269 36.6662 266.618 39.5611 267.722 42.2011Z" fill="url(#paint1_linear_47_32)"/>
<path d="M269.17 26.3783C268.976 27.712 267.29 30.2321 266.717 33.8391C252.749 45.645 243.151 32.3452 243.151 32.3452C241.124 32.9387 238.651 31.1204 239.444 29.4852C242.654 22.8682 242.191 21.951 242.931 18.7034C243.124 17.8569 243.284 17.0904 243.417 16.437C243.437 16.3509 243.457 16.2634 243.47 16.1833C243.577 15.6436 243.664 15.1961 243.724 14.863L243.838 14.2163C243.838 14.2163 251.263 21.4645 260.156 20.5231C269.049 19.5904 269.522 23.918 269.17 26.3783Z" fill="#FFBEB6"/>
<path opacity="0.71" d="M271.956 130.745C271.908 130.713 271.842 130.724 271.809 130.771C271.776 130.814 271.783 130.875 271.825 130.908C271.826 130.909 271.827 130.91 271.829 130.911C271.877 130.944 271.943 130.932 271.976 130.885C272.004 130.84 271.996 130.781 271.956 130.745ZM263.044 136.146C262.989 136.158 262.955 136.211 262.964 136.266C262.975 136.32 263.028 136.355 263.083 136.344C263.136 136.334 263.169 136.285 263.163 136.232C263.156 136.177 263.106 136.138 263.049 136.145C263.048 136.145 263.046 136.145 263.044 136.146ZM262.663 133.719C262.606 133.724 262.565 133.775 262.571 133.832C262.583 133.89 262.638 133.928 262.697 133.919C262.752 133.908 262.788 133.854 262.777 133.799C262.77 133.748 262.723 133.711 262.671 133.717C262.668 133.717 262.665 133.718 262.663 133.719ZM262.27 131.278C262.215 131.293 262.181 131.348 262.19 131.404C262.2 131.458 262.25 131.493 262.304 131.485C262.359 131.476 262.396 131.426 262.39 131.371C262.381 131.314 262.328 131.272 262.27 131.278ZM253.044 133.746C252.999 133.721 252.943 133.731 252.91 133.772C252.875 133.815 252.881 133.877 252.923 133.913C252.966 133.949 253.028 133.943 253.064 133.901C253.066 133.898 253.069 133.896 253.07 133.892C253.104 133.844 253.091 133.779 253.044 133.746ZM267.489 133.172C267.462 133.126 267.403 133.112 267.357 133.141C267.354 133.142 267.352 133.144 267.349 133.145C267.306 133.17 267.292 133.225 267.316 133.268C267.318 133.272 267.32 133.275 267.323 133.279C267.346 133.324 267.402 133.341 267.447 133.318C267.45 133.316 267.454 133.315 267.456 133.312C267.504 133.286 267.52 133.227 267.494 133.179C267.492 133.176 267.491 133.174 267.489 133.172ZM266.203 131.071C266.174 131.028 266.116 131.014 266.069 131.038C266.05 131.058 266.029 131.071 266.022 131.092V131.105C266.01 131.131 266.016 131.164 266.036 131.185C266.036 131.193 266.042 131.197 266.049 131.199H266.056C266.063 131.205 266.069 131.218 266.082 131.225C266.11 131.233 266.141 131.23 266.168 131.218C266.219 131.187 266.234 131.122 266.203 131.071ZM264.917 128.979C264.888 128.933 264.826 128.92 264.78 128.95C264.733 128.98 264.721 129.041 264.752 129.088C264.78 129.132 264.838 129.145 264.884 129.119C264.931 129.09 264.947 129.029 264.918 128.981C264.917 128.98 264.917 128.979 264.917 128.979ZM258.144 134.679C258.087 134.669 258.032 134.703 258.017 134.759C258.002 134.814 258.034 134.871 258.088 134.886C258.143 134.9 258.2 134.869 258.215 134.814C258.216 134.812 258.216 134.808 258.217 134.805C258.225 134.752 258.195 134.698 258.144 134.679ZM258.717 132.292C258.662 132.279 258.606 132.311 258.59 132.365C258.58 132.422 258.617 132.476 258.674 132.486C258.724 132.495 258.773 132.467 258.791 132.419C258.802 132.364 258.77 132.31 258.717 132.292ZM276.009 139.833C275.945 139.747 275.825 139.725 275.736 139.786C275.651 139.85 275.635 139.972 275.698 140.057C275.761 140.139 275.877 140.158 275.962 140.099C276.048 140.043 276.072 139.927 276.015 139.841C276.013 139.839 276.011 139.836 276.009 139.833ZM273.309 136.026C273.248 135.94 273.129 135.919 273.042 135.978C272.955 136.035 272.93 136.152 272.986 136.239C272.989 136.244 272.992 136.248 272.996 136.251C273.056 136.337 273.176 136.359 273.263 136.298C273.348 136.235 273.369 136.115 273.309 136.026ZM270.609 132.225C270.545 132.139 270.424 132.118 270.336 132.178C270.251 132.236 270.226 132.352 270.284 132.438C270.285 132.441 270.287 132.443 270.289 132.445C270.35 132.533 270.472 132.555 270.56 132.493C270.647 132.432 270.669 132.314 270.609 132.225ZM259.444 147.941C259.34 147.924 259.241 147.992 259.217 148.095C259.2 148.199 259.27 148.297 259.374 148.314C259.375 148.314 259.376 148.314 259.377 148.315C259.484 148.333 259.585 148.262 259.604 148.156C259.604 148.156 259.604 148.156 259.604 148.155C259.621 148.055 259.555 147.96 259.455 147.943C259.451 147.942 259.447 147.942 259.444 147.941ZM260.223 143.334C260.119 143.316 260.022 143.385 260.004 143.488C260.004 143.49 260.003 143.492 260.003 143.494C259.984 143.599 260.052 143.699 260.156 143.721C260.262 143.736 260.362 143.666 260.383 143.561C260.396 143.455 260.327 143.356 260.223 143.334ZM261.003 138.733C260.897 138.721 260.8 138.789 260.776 138.892C260.76 138.998 260.832 139.096 260.937 139.113C261.039 139.128 261.136 139.06 261.156 138.96C261.177 138.857 261.11 138.756 261.007 138.734C261.006 138.733 261.004 138.733 261.003 138.733ZM261.776 134.133C261.673 134.122 261.579 134.191 261.556 134.293C261.537 134.4 261.609 134.501 261.714 134.519C261.821 134.538 261.923 134.467 261.941 134.361C261.96 134.254 261.889 134.153 261.783 134.135C261.781 134.133 261.779 134.133 261.776 134.133ZM262.563 129.532C262.459 129.514 262.361 129.584 262.344 129.688C262.344 129.689 262.344 129.69 262.343 129.691C262.321 129.793 262.385 129.894 262.486 129.916C262.489 129.917 262.493 129.917 262.496 129.918C262.597 129.937 262.695 129.871 262.715 129.77C262.715 129.766 262.716 129.762 262.717 129.758C262.735 129.653 262.667 129.553 262.563 129.532ZM279.869 132.525C279.781 132.466 279.66 132.489 279.601 132.578C279.542 132.667 279.565 132.787 279.654 132.846C279.657 132.848 279.66 132.849 279.662 132.851C279.753 132.904 279.87 132.878 279.93 132.791C279.987 132.706 279.966 132.59 279.88 132.531C279.876 132.53 279.873 132.527 279.869 132.525ZM269.21 145.441C269.106 145.462 269.041 145.564 269.063 145.667C269.084 145.771 269.186 145.836 269.29 145.814C269.397 145.792 269.465 145.688 269.442 145.58C269.415 145.478 269.312 145.417 269.21 145.441ZM268.169 140.893C268.07 140.91 268.003 141.004 268.019 141.103C268.02 141.108 268.021 141.114 268.022 141.12C268.044 141.223 268.145 141.289 268.248 141.266C268.249 141.266 268.249 141.266 268.249 141.266C268.356 141.244 268.425 141.14 268.402 141.032C268.378 140.929 268.274 140.867 268.172 140.892C268.171 140.892 268.17 140.893 268.169 140.893ZM267.123 136.339C267.02 136.365 266.957 136.469 266.983 136.573C267.004 136.676 267.105 136.742 267.208 136.72C267.209 136.72 267.209 136.72 267.209 136.72C267.315 136.696 267.383 136.593 267.362 136.486C267.335 136.381 267.229 136.317 267.123 136.339ZM266.084 131.791C265.981 131.816 265.918 131.919 265.943 132.022C265.943 132.023 265.944 132.024 265.944 132.025C265.962 132.122 266.059 132.187 266.156 132.168C266.161 132.168 266.166 132.166 266.17 132.165C266.271 132.146 266.337 132.049 266.319 131.949C266.318 131.946 266.318 131.941 266.317 131.938C266.291 131.835 266.187 131.771 266.084 131.791ZM251.724 142.626C251.644 142.57 251.532 142.59 251.476 142.671C251.472 142.678 251.467 142.686 251.464 142.693C251.409 142.78 251.435 142.896 251.521 142.951C251.522 142.952 251.523 142.953 251.524 142.953C251.611 143.011 251.729 142.987 251.787 142.9C251.789 142.898 251.79 142.895 251.791 142.893C251.845 142.801 251.816 142.683 251.724 142.626ZM254.211 138.679C254.125 138.621 254.009 138.643 253.95 138.728C253.948 138.731 253.946 138.735 253.944 138.739C253.886 138.827 253.909 138.946 253.997 139.006C254.092 139.054 254.207 139.025 254.27 138.939C254.324 138.85 254.297 138.735 254.211 138.679ZM256.69 134.726C256.603 134.667 256.484 134.689 256.425 134.777C256.424 134.778 256.423 134.779 256.423 134.78C256.364 134.869 256.388 134.99 256.478 135.049C256.48 135.05 256.482 135.052 256.484 135.053C256.569 135.109 256.684 135.085 256.74 135C256.742 134.998 256.743 134.995 256.744 134.993C256.802 134.904 256.779 134.785 256.69 134.726ZM259.164 130.772C259.076 130.717 258.96 130.747 258.905 130.835C258.905 130.837 258.904 130.837 258.903 130.839C258.847 130.921 258.867 131.034 258.95 131.09C258.955 131.094 258.959 131.096 258.964 131.099C259.054 131.151 259.171 131.125 259.231 131.039C259.287 130.952 259.261 130.834 259.175 130.779C259.171 130.776 259.167 130.774 259.164 130.772ZM273.616 144.353C273.533 144.374 273.481 144.46 273.502 144.544C273.504 144.552 273.507 144.559 273.509 144.566C273.535 144.652 273.627 144.702 273.713 144.676C273.717 144.675 273.719 144.674 273.723 144.673C273.81 144.643 273.859 144.548 273.83 144.459C273.805 144.374 273.715 144.324 273.63 144.348C273.625 144.35 273.621 144.352 273.616 144.353ZM272.303 140.393C272.215 140.419 272.165 140.512 272.191 140.599C272.192 140.604 272.194 140.608 272.196 140.613C272.225 140.701 272.319 140.751 272.409 140.727C272.499 140.694 272.547 140.593 272.515 140.503C272.483 140.416 272.391 140.369 272.303 140.393ZM271.209 136.546C271.204 136.513 271.185 136.483 271.156 136.466H271.149C271.103 136.429 271.043 136.419 270.99 136.439C270.899 136.471 270.85 136.571 270.881 136.663C270.882 136.664 270.882 136.665 270.883 136.666C270.913 136.754 271.008 136.8 271.096 136.773C271.14 136.762 271.175 136.729 271.189 136.687C271.223 136.647 271.231 136.592 271.209 136.546ZM269.683 132.485C269.59 132.516 269.539 132.618 269.57 132.712C269.605 132.798 269.699 132.845 269.79 132.819C269.877 132.793 269.927 132.7 269.901 132.612C269.9 132.608 269.899 132.604 269.897 132.599C269.867 132.509 269.773 132.458 269.683 132.485ZM256.27 143.087C256.184 143.045 256.079 143.081 256.036 143.167C255.992 143.251 256.025 143.356 256.11 143.401C256.198 143.441 256.302 143.406 256.35 143.321C256.382 143.233 256.348 143.136 256.27 143.087ZM258.137 139.366C258.051 139.324 257.946 139.36 257.903 139.446C257.86 139.526 257.891 139.626 257.971 139.67C257.973 139.671 257.975 139.672 257.977 139.673C258.053 139.717 258.152 139.69 258.196 139.614C258.199 139.61 258.201 139.605 258.203 139.6C258.251 139.519 258.222 139.416 258.142 139.37C258.14 139.368 258.139 139.367 258.137 139.366ZM260.003 135.645C259.917 135.604 259.812 135.639 259.77 135.725C259.725 135.802 259.752 135.9 259.828 135.945C259.833 135.947 259.838 135.95 259.842 135.952C259.928 135.994 260.033 135.958 260.076 135.872C260.117 135.79 260.085 135.689 260.003 135.645ZM261.864 131.919C261.778 131.888 261.679 131.921 261.63 131.999C261.589 132.085 261.624 132.19 261.71 132.233C261.795 132.274 261.898 132.242 261.944 132.16C261.982 132.069 261.948 131.966 261.864 131.919ZM277.789 135.159C277.731 135.087 277.627 135.077 277.555 135.135C277.551 135.138 277.546 135.142 277.543 135.146C277.474 135.197 277.46 135.295 277.511 135.365C277.516 135.37 277.52 135.375 277.524 135.379C277.576 135.45 277.676 135.465 277.747 135.414C277.753 135.409 277.758 135.404 277.764 135.4C277.836 135.34 277.847 135.233 277.789 135.159ZM275.062 132.005C274.996 131.937 274.889 131.932 274.816 131.991C274.745 132.056 274.739 132.166 274.802 132.238C274.863 132.306 274.966 132.311 275.036 132.252C275.111 132.194 275.124 132.085 275.067 132.011C275.066 132.009 275.064 132.007 275.062 132.005ZM265.31 143.387C265.213 143.385 265.131 143.457 265.122 143.554C265.119 143.649 265.194 143.731 265.29 143.734C265.38 143.737 265.458 143.671 265.469 143.581C265.476 143.483 265.406 143.399 265.31 143.387ZM265.61 139.239C265.517 139.234 265.436 139.305 265.43 139.4C265.425 139.493 265.496 139.575 265.59 139.58C265.681 139.585 265.762 139.517 265.771 139.427C265.775 139.331 265.705 139.249 265.61 139.239ZM265.91 135.092C265.824 135.08 265.744 135.141 265.731 135.227C265.73 135.233 265.73 135.239 265.73 135.246C265.724 135.339 265.795 135.42 265.889 135.426C265.981 135.433 266.062 135.365 266.069 135.274C266.077 135.182 266.009 135.101 265.917 135.094C265.914 135.092 265.912 135.092 265.91 135.092ZM266.21 130.938C266.116 130.929 266.033 130.998 266.023 131.091V131.104C266.025 131.137 266.034 131.169 266.049 131.197H266.056C266.063 131.204 266.069 131.217 266.082 131.223C266.11 131.252 266.148 131.272 266.189 131.277C266.283 131.282 266.363 131.209 266.369 131.116C266.374 131.025 266.304 130.944 266.21 130.938ZM251.131 136.426C251.066 136.357 250.959 136.348 250.884 136.406C250.813 136.472 250.808 136.581 250.871 136.653C250.931 136.725 251.037 136.735 251.11 136.674C251.11 136.674 251.11 136.674 251.111 136.673C251.182 136.609 251.191 136.499 251.131 136.426ZM254.277 133.698C254.213 133.632 254.109 133.626 254.037 133.685C253.964 133.74 253.949 133.842 254.002 133.915C254.005 133.919 254.007 133.922 254.01 133.925C254.073 133.997 254.183 134.005 254.257 133.945C254.33 133.886 254.341 133.777 254.282 133.704C254.281 133.703 254.279 133.701 254.277 133.698ZM275.936 134.439C275.905 134.394 275.847 134.378 275.796 134.398C275.747 134.425 275.728 134.488 275.756 134.538V134.538C275.777 134.585 275.834 134.605 275.88 134.583C275.883 134.582 275.886 134.581 275.889 134.579C275.94 134.553 275.961 134.491 275.936 134.439ZM274.729 132.306C274.7 132.258 274.64 132.241 274.589 132.265C274.539 132.292 274.522 132.355 274.549 132.405C274.576 132.456 274.639 132.472 274.689 132.445C274.736 132.417 274.753 132.355 274.729 132.306ZM265.603 135.639C265.553 135.623 265.499 135.652 265.484 135.702C265.484 135.703 265.483 135.704 265.483 135.705C265.468 135.758 265.497 135.815 265.55 135.832C265.605 135.845 265.661 135.813 265.676 135.758C265.689 135.705 265.656 135.652 265.603 135.639ZM266.263 133.273C266.215 133.255 266.164 133.28 266.146 133.327C266.145 133.331 266.143 133.335 266.143 133.339C266.125 133.39 266.151 133.446 266.202 133.464C266.205 133.464 266.207 133.465 266.209 133.466C266.264 133.478 266.32 133.45 266.343 133.399C266.356 133.343 266.321 133.285 266.264 133.273C266.263 133.273 266.263 133.273 266.263 133.273ZM266.929 130.905C266.876 130.89 266.819 130.921 266.804 130.974C266.804 130.975 266.804 130.977 266.803 130.979C266.791 131.032 266.822 131.086 266.876 131.098C266.927 131.114 266.981 131.085 266.995 131.035C266.995 131.034 266.996 131.033 266.996 131.032C267.012 130.978 266.983 130.923 266.929 130.905ZM270.763 134.705C270.712 134.708 270.672 134.752 270.675 134.802C270.675 134.808 270.675 134.813 270.677 134.818C270.688 134.87 270.736 134.907 270.79 134.904C270.845 134.895 270.883 134.845 270.877 134.79C270.87 134.735 270.822 134.697 270.767 134.703C270.765 134.705 270.764 134.705 270.763 134.705ZM270.463 132.265C270.409 132.265 270.376 132.318 270.376 132.379C270.388 132.431 270.436 132.468 270.49 132.465C270.548 132.458 270.59 132.406 270.584 132.348C270.584 132.347 270.584 132.346 270.584 132.345C270.575 132.291 270.525 132.256 270.47 132.264C270.467 132.264 270.465 132.264 270.463 132.265ZM261.763 132.265C261.724 132.231 261.666 132.236 261.632 132.274C261.628 132.277 261.626 132.281 261.623 132.285C261.59 132.33 261.599 132.392 261.642 132.425C261.687 132.458 261.749 132.449 261.782 132.406C261.817 132.361 261.807 132.299 261.763 132.265ZM263.283 130.338C263.244 130.304 263.186 130.308 263.152 130.345C263.149 130.349 263.145 130.353 263.143 130.357C263.11 130.394 263.112 130.45 263.148 130.484C263.151 130.487 263.153 130.489 263.156 130.491C263.201 130.527 263.266 130.52 263.303 130.477C263.336 130.435 263.329 130.374 263.287 130.341C263.285 130.34 263.284 130.339 263.283 130.338ZM276.95 137.146C276.891 137.161 276.857 137.221 276.872 137.28C276.874 137.284 276.875 137.289 276.876 137.292C276.898 137.351 276.962 137.383 277.023 137.365C277.083 137.342 277.116 137.275 277.096 137.213C277.075 137.154 277.009 137.124 276.95 137.146C276.95 137.146 276.95 137.146 276.95 137.146ZM276.042 134.492C275.981 134.511 275.946 134.576 275.962 134.639C275.987 134.698 276.052 134.729 276.115 134.712C276.172 134.694 276.203 134.633 276.186 134.576C276.184 134.573 276.183 134.569 276.182 134.565C276.164 134.507 276.104 134.474 276.046 134.491C276.045 134.492 276.043 134.492 276.042 134.492ZM275.129 131.839C275.067 131.859 275.034 131.927 275.055 131.989C275.055 131.989 275.056 131.991 275.056 131.991C275.056 131.998 275.056 131.998 275.062 132.005C275.091 132.053 275.148 132.077 275.202 132.065C275.262 132.04 275.293 131.974 275.276 131.912C275.255 131.851 275.19 131.82 275.129 131.839ZM265.263 136.419C265.203 136.396 265.134 136.422 265.104 136.479C265.077 136.536 265.1 136.604 265.157 136.632C265.208 136.661 265.274 136.644 265.304 136.592C265.306 136.587 265.308 136.583 265.31 136.578C265.341 136.522 265.32 136.451 265.263 136.419ZM266.49 133.898C266.431 133.879 266.366 133.904 266.337 133.958C266.308 134.013 266.326 134.08 266.381 134.109C266.382 134.11 266.383 134.11 266.384 134.111C266.44 134.143 266.51 134.123 266.542 134.068C266.542 134.067 266.543 134.065 266.544 134.064C266.569 134.004 266.547 133.933 266.49 133.898ZM267.723 131.385C267.664 131.361 267.596 131.383 267.563 131.438C267.539 131.495 267.561 131.562 267.616 131.591C267.667 131.62 267.733 131.603 267.763 131.551C267.765 131.546 267.767 131.542 267.769 131.537C267.799 131.485 267.781 131.418 267.729 131.387C267.728 131.387 267.725 131.386 267.723 131.385ZM281.356 132.939C281.314 132.89 281.24 132.883 281.191 132.925C281.191 132.925 281.19 132.925 281.189 132.926C281.142 132.97 281.136 133.042 281.176 133.093C281.22 133.141 281.294 133.144 281.341 133.101C281.341 133.1 281.342 133.1 281.342 133.1C281.389 133.057 281.395 132.987 281.356 132.939ZM271.156 136.466H271.149C271.087 136.468 271.037 136.517 271.035 136.579C271.029 136.639 271.072 136.693 271.132 136.698C271.135 136.699 271.138 136.699 271.142 136.699C271.159 136.7 271.175 136.696 271.189 136.686C271.235 136.68 271.268 136.638 271.262 136.593C271.269 136.53 271.224 136.474 271.162 136.467C271.16 136.466 271.158 136.466 271.156 136.466ZM271.329 133.666C271.266 133.66 271.208 133.708 271.203 133.772C271.198 133.836 271.245 133.893 271.309 133.898C271.312 133.898 271.314 133.899 271.317 133.899C271.379 133.903 271.432 133.856 271.436 133.794C271.436 133.793 271.436 133.793 271.436 133.792C271.443 133.729 271.398 133.673 271.336 133.666C271.333 133.666 271.331 133.666 271.329 133.666ZM271.502 130.872C271.445 130.863 271.391 130.903 271.383 130.96C271.383 130.966 271.382 130.972 271.382 130.978C271.375 131.04 271.42 131.097 271.482 131.104C271.484 131.104 271.486 131.104 271.488 131.104C271.552 131.106 271.606 131.055 271.608 130.991C271.615 130.931 271.571 130.877 271.512 130.872C271.51 130.872 271.506 130.872 271.502 130.872ZM261.556 131.871C261.515 131.827 261.446 131.824 261.403 131.865C261.401 131.867 261.399 131.869 261.397 131.871C261.349 131.913 261.344 131.984 261.383 132.032C261.426 132.082 261.5 132.087 261.55 132.046C261.6 132.003 261.605 131.929 261.564 131.879C261.561 131.876 261.56 131.874 261.556 131.871ZM263.656 130.018C263.613 129.97 263.54 129.966 263.493 130.009C263.492 130.009 263.491 130.011 263.49 130.011C263.445 130.053 263.443 130.121 263.484 130.165C263.486 130.167 263.488 130.169 263.49 130.171C263.523 130.217 263.586 130.226 263.632 130.193C263.637 130.19 263.64 130.187 263.643 130.184C263.692 130.142 263.7 130.069 263.659 130.02C263.658 130.02 263.657 130.018 263.656 130.018ZM272.583 148.78C272.474 148.768 272.376 148.846 272.363 148.955C272.363 148.957 272.362 148.959 272.362 148.961C272.355 149.069 272.434 149.163 272.543 149.174C272.653 149.183 272.749 149.103 272.763 148.994C272.773 148.885 272.693 148.79 272.585 148.78C272.584 148.78 272.583 148.78 272.583 148.78ZM272.969 143.987C272.861 143.977 272.766 144.056 272.755 144.163C272.755 144.165 272.755 144.166 272.755 144.167C272.751 144.277 272.833 144.371 272.943 144.381C273.052 144.39 273.147 144.309 273.155 144.2C273.165 144.091 273.084 143.996 272.975 143.988C272.973 143.987 272.971 143.987 272.969 143.987ZM273.369 139.193C273.261 139.181 273.163 139.258 273.151 139.367C273.138 139.476 273.215 139.573 273.324 139.585C273.328 139.586 273.332 139.586 273.336 139.587C273.447 139.597 273.545 139.517 273.556 139.406C273.558 139.298 273.478 139.205 273.369 139.193ZM273.762 134.399C273.653 134.394 273.559 134.476 273.549 134.586C273.542 134.694 273.621 134.789 273.729 134.799C273.84 134.807 273.935 134.723 273.943 134.612C273.951 134.504 273.87 134.41 273.762 134.399ZM254.717 139.593C254.649 139.511 254.526 139.499 254.444 139.567C254.442 139.569 254.439 139.571 254.437 139.573C254.355 139.635 254.339 139.752 254.399 139.834C254.402 139.838 254.406 139.842 254.41 139.846C254.483 139.929 254.609 139.941 254.697 139.872C254.776 139.799 254.785 139.677 254.717 139.593ZM258.383 136.486C258.315 136.402 258.191 136.388 258.107 136.456C258.023 136.524 258.01 136.648 258.078 136.732C258.08 136.735 258.082 136.737 258.084 136.739C258.156 136.821 258.278 136.832 258.364 136.766C258.445 136.694 258.454 136.569 258.383 136.486ZM262.05 133.372C261.979 133.288 261.854 133.277 261.77 133.346C261.69 133.421 261.678 133.544 261.743 133.633C261.815 133.715 261.941 133.723 262.023 133.652C262.108 133.585 262.122 133.463 262.056 133.379C262.054 133.377 262.052 133.374 262.05 133.372ZM265.716 130.265C265.649 130.18 265.527 130.166 265.443 130.232C265.441 130.234 265.439 130.236 265.436 130.238C265.356 130.312 265.344 130.437 265.41 130.524C265.482 130.606 265.607 130.614 265.69 130.544C265.774 130.477 265.788 130.355 265.722 130.271C265.72 130.269 265.718 130.267 265.716 130.265ZM279.329 136.293C279.224 136.323 279.164 136.434 279.194 136.54C279.224 136.647 279.336 136.707 279.442 136.676C279.444 136.675 279.447 136.674 279.45 136.673C279.555 136.643 279.615 136.532 279.585 136.425C279.555 136.319 279.443 136.259 279.337 136.29C279.335 136.291 279.332 136.291 279.329 136.293ZM277.983 131.718C277.943 131.709 277.903 131.709 277.863 131.718C277.756 131.752 277.699 131.865 277.73 131.972C277.769 132.077 277.886 132.13 277.991 132.091C278.09 132.053 278.144 131.947 278.116 131.845C278.095 131.783 278.045 131.736 277.983 131.718ZM264.07 144.1C263.971 144.052 263.851 144.094 263.803 144.193C263.755 144.288 263.791 144.406 263.883 144.46C263.982 144.507 264.101 144.468 264.156 144.374C264.209 144.276 264.17 144.154 264.073 144.102C264.072 144.101 264.071 144.1 264.07 144.1ZM266.269 139.826C266.174 139.777 266.057 139.814 266.007 139.91C266.005 139.913 266.004 139.916 266.003 139.92C265.952 140.012 265.987 140.128 266.08 140.178C266.081 140.179 266.082 140.179 266.083 140.18C266.18 140.232 266.303 140.194 266.355 140.096C266.355 140.095 266.356 140.094 266.356 140.093C266.407 140.001 266.374 139.883 266.281 139.832C266.278 139.83 266.273 139.828 266.269 139.826ZM268.463 135.546C268.366 135.502 268.251 135.544 268.203 135.639C268.152 135.733 268.189 135.852 268.284 135.902C268.286 135.903 268.288 135.904 268.29 135.905C268.382 135.954 268.497 135.919 268.547 135.826C268.548 135.823 268.549 135.821 268.55 135.818C268.602 135.721 268.564 135.598 268.467 135.546C268.465 135.546 268.464 135.546 268.463 135.546ZM270.663 131.272C270.564 131.226 270.445 131.267 270.395 131.365C270.35 131.465 270.395 131.582 270.494 131.628C270.586 131.67 270.698 131.635 270.749 131.546C270.801 131.448 270.763 131.326 270.665 131.274C270.665 131.273 270.664 131.272 270.663 131.272ZM281.562 133.619C281.459 133.656 281.403 133.768 281.436 133.873C281.481 133.972 281.591 134.023 281.696 133.993C281.798 133.954 281.85 133.843 281.812 133.74C281.811 133.737 281.81 133.735 281.809 133.732C281.774 133.634 281.665 133.582 281.566 133.617C281.565 133.618 281.564 133.618 281.562 133.619ZM266.529 146.294C266.425 146.251 266.308 146.299 266.262 146.401C266.221 146.5 266.265 146.614 266.361 146.661C266.456 146.708 266.571 146.667 266.618 146.572C266.619 146.568 266.621 146.565 266.622 146.562C266.671 146.461 266.629 146.342 266.529 146.294ZM268.537 141.947C268.433 141.904 268.315 141.951 268.269 142.054C268.226 142.156 268.275 142.273 268.377 142.315C268.477 142.358 268.592 142.312 268.637 142.213C268.678 142.112 268.634 141.996 268.537 141.947ZM270.543 137.606C270.446 137.559 270.33 137.6 270.283 137.696C270.283 137.697 270.282 137.698 270.282 137.698C270.234 137.797 270.275 137.916 270.372 137.964C270.471 138.012 270.59 137.971 270.638 137.873C270.686 137.776 270.645 137.656 270.547 137.608C270.546 137.608 270.544 137.606 270.543 137.606ZM272.55 133.258C272.455 133.211 272.339 133.251 272.292 133.346C272.291 133.348 272.29 133.35 272.289 133.351C272.245 133.451 272.29 133.567 272.389 133.612C272.478 133.661 272.591 133.627 272.64 133.537C272.644 133.531 272.646 133.525 272.649 133.518C272.694 133.421 272.651 133.304 272.553 133.26C272.552 133.26 272.551 133.259 272.55 133.258ZM276.935 141.319C276.826 141.318 276.735 141.403 276.729 141.513C276.729 141.624 276.819 141.713 276.93 141.713C277.033 141.712 277.118 141.635 277.129 141.533C277.133 141.421 277.046 141.327 276.935 141.319ZM277.135 136.532C277.023 136.528 276.929 136.614 276.922 136.726C276.92 136.834 277.002 136.923 277.109 136.933C277.218 136.938 277.31 136.855 277.316 136.746C277.316 136.744 277.316 136.741 277.316 136.739C277.323 136.632 277.242 136.54 277.135 136.532ZM277.322 131.745C277.211 131.744 277.118 131.827 277.109 131.939C277.106 132.05 277.195 132.143 277.306 132.145C277.307 132.145 277.308 132.145 277.309 132.145C277.417 132.149 277.509 132.067 277.516 131.958C277.517 131.848 277.433 131.755 277.322 131.745ZM260.183 138.619C260.116 138.54 259.998 138.532 259.918 138.598C259.913 138.603 259.908 138.608 259.904 138.612C259.825 138.682 259.818 138.803 259.887 138.882C259.889 138.883 259.889 138.885 259.891 138.885C259.961 138.966 260.083 138.974 260.164 138.904C260.166 138.902 260.169 138.9 260.171 138.898C260.251 138.832 260.263 138.715 260.198 138.633C260.193 138.63 260.188 138.624 260.183 138.619ZM263.703 135.365C263.628 135.285 263.501 135.28 263.42 135.355C263.34 135.431 263.334 135.558 263.41 135.639C263.484 135.718 263.608 135.724 263.69 135.652C263.772 135.582 263.782 135.458 263.713 135.376C263.71 135.372 263.707 135.369 263.703 135.365ZM267.222 132.118C267.147 132.038 267.02 132.033 266.939 132.108C266.859 132.184 266.853 132.311 266.929 132.392C267.003 132.471 267.127 132.477 267.209 132.405C267.291 132.335 267.301 132.211 267.232 132.129C267.23 132.126 267.226 132.122 267.222 132.118ZM268.442 138.299C268.382 138.247 268.29 138.254 268.238 138.315C268.234 138.319 268.232 138.322 268.229 138.326C268.182 138.393 268.197 138.484 268.262 138.533C268.325 138.585 268.417 138.577 268.469 138.514C268.522 138.451 268.513 138.359 268.45 138.307C268.449 138.304 268.446 138.301 268.442 138.299ZM270.609 135.406C270.543 135.355 270.447 135.366 270.396 135.432C270.345 135.498 270.356 135.593 270.422 135.645C270.488 135.696 270.584 135.685 270.636 135.619C270.687 135.553 270.675 135.457 270.609 135.406ZM272.769 132.512C272.701 132.466 272.61 132.477 272.556 132.538C272.507 132.607 272.523 132.701 272.589 132.752C272.654 132.797 272.744 132.787 272.795 132.725C272.848 132.662 272.838 132.569 272.774 132.516C272.772 132.515 272.771 132.513 272.769 132.512ZM275.896 139.773C275.816 139.754 275.734 139.8 275.709 139.88C275.693 139.96 275.738 140.04 275.816 140.067C275.894 140.084 275.972 140.038 275.996 139.96C276.022 139.884 275.98 139.803 275.906 139.776C275.901 139.775 275.899 139.773 275.896 139.773ZM276.783 136.272C276.708 136.254 276.632 136.297 276.612 136.373C276.61 136.377 276.61 136.381 276.609 136.386C276.586 136.462 276.628 136.542 276.704 136.565C276.705 136.566 276.707 136.566 276.709 136.567C276.791 136.586 276.874 136.536 276.896 136.453C276.914 136.371 276.863 136.291 276.783 136.272ZM277.682 132.772C277.6 132.754 277.518 132.804 277.495 132.886C277.474 132.958 277.516 133.034 277.588 133.056C277.592 133.057 277.597 133.058 277.6 133.059C277.676 133.084 277.758 133.044 277.784 132.968C277.785 132.966 277.786 132.962 277.787 132.96C277.808 132.878 277.762 132.796 277.682 132.772ZM264.857 131.651C264.817 131.582 264.729 131.558 264.659 131.596C264.658 131.597 264.657 131.598 264.656 131.598C264.586 131.634 264.559 131.718 264.593 131.789C264.596 131.795 264.599 131.8 264.603 131.806C264.643 131.875 264.73 131.899 264.8 131.861C264.801 131.86 264.802 131.859 264.803 131.859C264.875 131.817 264.899 131.723 264.857 131.651ZM267.962 129.812C267.919 129.74 267.828 129.717 267.756 129.758C267.687 129.798 267.662 129.886 267.701 129.956C267.701 129.957 267.702 129.958 267.703 129.959C267.741 130.032 267.831 130.061 267.903 130.022C267.905 130.021 267.907 130.02 267.909 130.019C267.981 129.976 268.004 129.884 267.962 129.812ZM278.715 132.325C278.672 132.313 278.628 132.329 278.602 132.365C278.588 132.41 278.607 132.457 278.649 132.479C278.691 132.496 278.737 132.476 278.755 132.434C278.755 132.433 278.756 132.433 278.756 132.432C278.771 132.391 278.753 132.347 278.715 132.325ZM275.762 134.793C275.717 134.742 275.641 134.74 275.591 134.784C275.587 134.787 275.585 134.79 275.582 134.793C275.529 134.836 275.521 134.913 275.563 134.967C275.567 134.972 275.571 134.976 275.575 134.979C275.626 135.032 275.708 135.034 275.762 134.986C275.816 134.941 275.822 134.861 275.778 134.808C275.773 134.803 275.768 134.797 275.762 134.793ZM278.109 132.512C278.056 132.459 277.969 132.459 277.915 132.512C277.862 132.565 277.862 132.652 277.915 132.706C277.972 132.755 278.059 132.75 278.109 132.692C278.153 132.64 278.153 132.563 278.109 132.512Z" fill="white"/>
<path d="M301.646 130.912C301.646 130.912 290.38 136.419 265.369 128.612C259.224 126.669 253.213 124.321 247.376 121.584L255.503 53.562C256.456 52.1596 257.502 50.8225 258.636 49.5614C258.636 49.5614 258.629 49.5547 258.643 49.5547C258.856 49.3145 259.069 49.0816 259.283 48.8542C259.317 48.8104 259.355 48.7707 259.397 48.7344C259.617 48.5076 259.829 48.2808 260.043 48.0675C260.51 47.6012 260.963 47.1671 261.416 46.7539C261.636 46.5541 261.863 46.3542 262.083 46.1672C262.743 45.5871 263.383 45.081 263.976 44.6335C264.176 44.4868 264.37 44.3401 264.563 44.2002C265.517 43.5138 266.349 42.9869 267.01 42.5999C267.277 42.4472 267.516 42.3133 267.722 42.2002C267.669 42.067 267.615 41.933 267.575 41.8005C267.635 41.7601 267.702 41.7143 267.763 41.6672C275.425 46.9013 281.912 53.6784 286.807 61.5632C295.12 74.8247 292.946 79.719 297.46 87.5331C301.966 95.3472 316.066 112.142 301.646 130.912Z" fill="url(#paint2_linear_47_32)"/>
<path d="M278.029 113.936C276.336 122.47 271.316 126.724 265.37 128.611C257.351 131.158 247.644 129.418 242.112 128.119C232.466 125.845 230.579 129.059 222.26 131.333C213.942 133.599 205.514 129.965 205.514 129.965L198.855 99.8149C198.855 99.8149 210.795 99.4018 223.393 98.6218C236.038 97.8419 244.758 92.1879 248.725 70.4454C249.767 64.4024 252.078 58.6482 255.505 53.5635C256.458 52.1611 257.503 50.824 258.638 49.5629C258.638 49.5629 258.631 49.5562 258.645 49.5562C258.858 49.3159 259.071 49.0831 259.285 48.8556C259.319 48.8119 259.357 48.7722 259.398 48.7359C259.619 48.5091 259.831 48.2823 260.045 48.069C260.512 47.5959 260.965 47.1619 261.418 46.7554C261.638 46.5555 261.865 46.3557 262.085 46.1686C262.745 45.5885 263.385 45.0825 263.978 44.635C264.178 44.4883 264.372 44.3416 264.565 44.2016C265.519 43.5152 266.351 42.9883 267.012 42.6014C267.279 42.4486 267.518 42.3147 267.725 42.2017C268.16 43.2891 268.685 44.3396 269.291 45.3429C275.258 55.2976 273.504 59.0378 273.504 59.0378L277.838 57.8312C280.209 73.3579 280.895 99.4677 278.029 113.936Z" fill="#23286B"/>
<path d="M175.321 243.179H155.218C155.218 243.179 144.724 253.03 133.483 257.849C122.242 262.667 118.868 269.174 118.868 269.174L184.636 269.172L175.321 243.179Z" fill="url(#paint3_linear_47_32)"/>
<path d="M229.825 243.179L208.448 243.18C208.448 243.18 199.229 253.029 187.987 257.849C176.745 262.668 173.373 269.174 173.373 269.174L239.143 269.172L229.825 243.179Z" fill="#28306D"/>
<path d="M241.245 21.815C242.52 23.8748 245.378 23.5303 246.405 21.2652C246.528 20.992 246.118 20.8352 245.995 21.1084C245.53 22.3769 244.124 23.0289 242.857 22.5639C242.329 22.3701 241.885 22.0014 241.597 21.5189C241.445 21.2726 241.095 21.5714 241.245 21.815Z" fill="#1C2868"/>
<path d="M302.478 39.4527C300.313 35.7731 296.946 33.407 293.691 30.7745C290.202 27.8863 287.293 24.3608 285.119 20.3878C284.553 18.5783 283.944 16.4121 283.217 13.7358C279.237 -0.899159 264.138 -1.47923 253.252 1.32758C242.493 4.10142 239.92 11.075 242.933 18.7034C243.32 17.0157 243.587 15.6295 243.727 14.863L243.84 14.2163C243.84 14.2163 251.266 21.4645 260.159 20.523C264.233 20.0957 266.537 20.7734 267.807 21.8682C268.447 23.2006 268.652 24.702 268.392 26.1575C268.056 28.2517 267.042 30.1056 266.183 32.0208C265.085 34.4662 264.301 36.8841 264.726 39.5866C265.783 46.3274 274.056 52.9316 269.207 59.8547C268.898 60.2948 269.62 60.712 269.926 60.2753C275.796 51.8946 263.701 44.1955 265.723 35.6277C266.076 34.3074 266.566 33.0282 267.185 31.8095C266.988 32.4757 266.832 33.1533 266.719 33.8397C266.226 36.9063 266.545 40.7676 269.291 45.3415C275.258 55.2962 273.504 59.0364 273.504 59.0364L303.696 50.6086C303.696 50.6086 305.222 43.8207 296.443 35.8599C290.651 30.609 288.478 29.0249 286.527 24.3561C287.36 25.5579 288.269 26.7066 289.245 27.7948C292.106 30.9697 295.858 33.0968 298.847 36.1203C302.626 39.9661 304.618 45.2211 304.339 50.6059C304.32 51.1422 305.152 51.1409 305.172 50.6059C305.366 46.7062 304.431 42.8335 302.478 39.4527Z" fill="#494949"/>
<path d="M177.912 64.1518L179.017 66.6596L112.165 96.2986L95.1256 113.885L71.52 102.043L44.8366 110.266L44.0343 107.646L71.7633 99.0998L94.5597 110.536L110.575 94.0062L177.912 64.1518Z" fill="#3E8AF8"/>
<path d="M122.673 210.318H133.114V232.825H122.673V210.318Z" fill="#D6D7D8"/>
<path d="M106.67 195.977H117.11V232.825H106.67V195.977Z" fill="#3E8AF8"/>
<path d="M90.6654 183.557H101.106V232.825H90.6654V183.557Z" fill="#FFC700"/>
<path d="M74.6615 155.217H85.1018V232.825H74.6615V155.217Z" fill="#FF386A"/>
<path d="M70.2408 196.968H59.4346V232.825H70.2408V196.968Z" fill="#D6D7D8"/>
<path d="M54.5221 183.706H43.7158V232.825H54.5221V183.706Z" fill="#D6D7D8"/>
<defs>
<linearGradient id="paint0_linear_47_32" x1="121.97" y1="245.539" x2="181.03" y2="178.719" gradientUnits="userSpaceOnUse">
<stop stop-color="#3E8AF8"/>
<stop offset="0.4648" stop-color="#2A82F5"/>
<stop offset="1" stop-color="#1479F2"/>
</linearGradient>
<linearGradient id="paint1_linear_47_32" x1="261.623" y1="52.3405" x2="261.623" y2="33.7396" gradientUnits="userSpaceOnUse">
<stop stop-color="#FFBEB6"/>
<stop offset="1" stop-color="#F2A19C"/>
</linearGradient>
<linearGradient id="paint2_linear_47_32" x1="287.898" y1="48.3339" x2="272.644" y2="138.34" gradientUnits="userSpaceOnUse">
<stop stop-color="#23286B"/>
<stop offset="1" stop-color="#151A4F"/>
</linearGradient>
<linearGradient id="paint3_linear_47_32" x1="118.868" y1="256.176" x2="184.637" y2="256.176" gradientUnits="userSpaceOnUse">
<stop stop-color="#28306D"/>
<stop offset="0.51" stop-color="#1F275F"/>
<stop offset="1" stop-color="#171F51"/>
</linearGradient>
</defs>
</svg>
