<svg width="20" height="20" viewBox="0 0 20 20" fill="none" xmlns="http://www.w3.org/2000/svg">
<path d="M17.5 16.6666C17.5 16.8877 17.4122 17.0996 17.2559 17.2559C17.0996 17.4122 16.8877 17.5 16.6667 17.5H3.33333C3.11232 17.5 2.90036 17.4122 2.74408 17.2559C2.5878 17.0996 2.5 16.8877 2.5 16.6666V7.90831C2.49991 7.78133 2.52885 7.656 2.5846 7.5419C2.64035 7.4278 2.72143 7.32795 2.82167 7.24998L9.48833 2.06498C9.63462 1.95119 9.81467 1.8894 10 1.8894C10.1853 1.8894 10.3654 1.95119 10.5117 2.06498L17.1783 7.24998C17.2786 7.32795 17.3597 7.4278 17.4154 7.5419C17.4712 7.656 17.5001 7.78133 17.5 7.90831V16.6666Z" fill="white" fill-opacity="0.4"/>
<path fill-rule="evenodd" clip-rule="evenodd" d="M3.33333 17.5H10V1.8894C9.81467 1.8894 9.63462 1.95119 9.48833 2.06498L2.82167 7.24998C2.72143 7.32795 2.64035 7.4278 2.5846 7.5419C2.52885 7.656 2.49991 7.78133 2.5 7.90831V16.6666C2.5 16.8877 2.5878 17.0996 2.74408 17.2559C2.90036 17.4122 3.11232 17.5 3.33333 17.5Z" fill="white" fill-opacity="0.4"/>
</svg>
