<svg width="23" height="22" viewBox="0 0 23 22" fill="none" xmlns="http://www.w3.org/2000/svg">
<path fill-rule="evenodd" clip-rule="evenodd" d="M21.8365 11.248C21.8365 10.4745 21.7671 9.73065 21.6381 9.0166H11.3638V13.2364H17.2348C16.982 14.6001 16.2134 15.7554 15.058 16.529V19.2662H18.5836C20.6464 17.367 21.8365 14.5703 21.8365 11.248Z" fill="#4285F4"/>
<path fill-rule="evenodd" clip-rule="evenodd" d="M11.3638 21.9091C14.3092 21.9091 16.7786 20.9323 18.5836 19.2661L15.058 16.529C14.0811 17.1835 12.8315 17.5703 11.3638 17.5703C8.52243 17.5703 6.11747 15.6513 5.25962 13.0728H1.61499V15.8992C3.41003 19.4645 7.09929 21.9091 11.3638 21.9091Z" fill="#34A853"/>
<path fill-rule="evenodd" clip-rule="evenodd" d="M5.25955 13.0727C5.04137 12.4182 4.9174 11.719 4.9174 11C4.9174 10.281 5.04137 9.58182 5.25955 8.92728V6.10083H1.61492C0.876077 7.57356 0.45459 9.23967 0.45459 11C0.45459 12.7603 0.876077 14.4264 1.61492 15.8992L5.25955 13.0727Z" fill="#FBBC05"/>
<path fill-rule="evenodd" clip-rule="evenodd" d="M11.3638 4.42966C12.9654 4.42966 14.4034 4.98008 15.534 6.06107L18.6629 2.93214C16.7737 1.17181 14.3042 0.0908203 11.3638 0.0908203C7.09929 0.0908203 3.41003 2.53545 1.61499 6.10074L5.25962 8.92718C6.11747 6.34867 8.52243 4.42966 11.3638 4.42966Z" fill="#EA4335"/>
</svg>
