<svg width="113" height="24" viewBox="0 0 113 24" fill="none" xmlns="http://www.w3.org/2000/svg">
<path d="M33.4957 2.08765L0.358506 2.08765C0.256262 2.08765 0.117731 2.21675 0.0399916 2.39412C-0.0710494 2.64746 0.0785932 2.98008 0.133595 3.01197L8.13842 7.6291L0.326912 21.2872C0.0300363 21.8442 -0.154511 22.6496 0.202357 23.2458C0.559225 23.842 1.22529 23.9496 1.85452 23.9999H34.9128C35.0801 23.9975 35.2839 23.8405 35.2953 23.6545C35.3066 23.4685 35.2564 23.291 35.0893 23.1948C34.9222 23.0985 26.951 18.5035 26.9544 18.4976C29.585 13.9482 34.8464 4.84931 34.8464 4.84931C35.1498 4.29217 35.4298 3.47754 35.1258 2.92068C34.8218 2.36382 34.1285 2.13372 33.4957 2.08765Z" fill="url(#paint0_linear)"/>
<circle cx="17.46" cy="13.2866" r="3.89505" fill="white"/>
<path fill-rule="evenodd" clip-rule="evenodd" d="M55.0573 2.13989C55.0429 2.70897 55.2682 3.25794 55.6781 3.65288C56.0804 4.0507 56.6254 4.27059 57.1911 4.2633C57.7742 4.28118 58.3393 4.06077 58.7563 3.65288C59.1801 3.27119 59.4195 2.72585 59.4137 2.15554C59.428 1.57725 59.1967 1.01994 58.7772 0.621682C58.3626 0.208936 57.7968 -0.0155118 57.212 0.000834291C56.6403 -0.00905296 56.0889 0.212622 55.6831 0.615471C55.2773 1.01832 55.0516 1.56812 55.0573 2.13989ZM59.1528 6.80928H55.2712V21.3914H59.1528V6.80928Z" fill="white"/>
<path d="M92.5742 0.0791016H96.2263V21.3914H92.5742V0.0791016Z" fill="white"/>
<path fill-rule="evenodd" clip-rule="evenodd" d="M112.958 14.2595C112.958 11.9048 112.382 10.0753 111.231 8.77103C110.08 7.46673 108.368 6.8111 106.097 6.80414C104.781 6.78113 103.482 7.09927 102.325 7.72759C101.223 8.32841 100.317 9.23407 99.7166 10.3362C99.0863 11.5014 98.7682 12.8098 98.7931 14.1343C98.7661 15.4561 99.0806 16.7625 99.7061 17.9272C100.301 19.0117 101.198 19.8998 102.289 20.4837C103.482 21.1075 104.814 21.4198 106.16 21.3915C107.326 21.4017 108.482 21.18 109.561 20.7393C110.556 20.3345 111.447 19.7124 112.17 18.9185L110.271 16.9621C109.777 17.4785 109.179 17.8855 108.518 18.1568C107.856 18.4299 107.147 18.5699 106.431 18.569C104.45 18.6454 102.713 17.2536 102.356 15.303H112.958V14.2595ZM108.727 10.4562C109.405 11.1175 109.783 12.0286 109.77 12.9761H102.257C102.374 12.0097 102.831 11.1164 103.546 10.4562C105.051 9.21708 107.222 9.21708 108.727 10.4562Z" fill="white"/>
<path d="M83.5483 9.73087H76.8076V6.81445H89.3602L82.6718 18.4697H89.4541V21.3913H76.8285L83.5483 9.73087Z" fill="white"/>
<path d="M69.1752 9.73087H62.4346V6.81445H74.9924L68.3039 18.4697H75.0863V21.3913H62.4607L69.1752 9.73087Z" fill="white"/>
<path d="M42.5518 6.81454H46.2508V9.15185C46.891 8.32866 47.7633 7.71625 48.755 7.39365C49.9527 6.98925 51.2109 6.79337 52.4749 6.81454V9.73096C51.1606 9.70549 49.8547 9.94503 48.635 10.4353C47.6256 10.8165 46.8116 11.5872 46.376 12.5743V21.3914H42.5518V6.81454Z" fill="white"/>
<defs>
<linearGradient id="paint0_linear" x1="0.000184889" y1="24.0063" x2="35.2963" y2="24.0063" gradientUnits="userSpaceOnUse">
<stop stop-color="#FF3171"/>
<stop offset="0.3" stop-color="#FF3868"/>
<stop offset="0.81" stop-color="#FF4C4E"/>
<stop offset="0.99" stop-color="#FF5543"/>
</linearGradient>
</defs>
</svg>
