<svg width="36" height="22" viewBox="0 0 36 22" fill="none" xmlns="http://www.w3.org/2000/svg">
<path d="M33.4957 0.0876465L0.358506 0.0876465C0.256262 0.0876465 0.117731 0.21675 0.0399916 0.394115C-0.0710494 0.64746 0.0785932 0.980082 0.133595 1.01197L8.13842 5.6291L0.326912 19.2872C0.0300363 19.8442 -0.154511 20.6496 0.202357 21.2458C0.559225 21.842 1.22529 21.9496 1.85452 21.9999H34.9128C35.0801 21.9975 35.2839 21.8405 35.2953 21.6545C35.3066 21.4685 35.2564 21.291 35.0893 21.1948C34.9222 21.0985 26.951 16.5035 26.9544 16.4976C29.585 11.9482 34.8464 2.84931 34.8464 2.84931C35.1498 2.29217 35.4298 1.47754 35.1258 0.920683C34.8218 0.363822 34.1285 0.13372 33.4957 0.0876465Z" fill="url(#paint0_linear_118_225)"/>
<circle cx="17.46" cy="11.2866" r="3.89505" fill="white"/>
<defs>
<linearGradient id="paint0_linear_118_225" x1="0.000184889" y1="22.0063" x2="35.2963" y2="22.0063" gradientUnits="userSpaceOnUse">
<stop stop-color="#FF3171"/>
<stop offset="0.3" stop-color="#FF3868"/>
<stop offset="0.81" stop-color="#FF4C4E"/>
<stop offset="0.99" stop-color="#FF5543"/>
</linearGradient>
</defs>
</svg>
