<svg width="20" height="20" viewBox="0 0 20 20" fill="none" xmlns="http://www.w3.org/2000/svg">
<path d="M4.44463 3.78748C5.30024 3.02104 6.30521 2.43997 7.3963 2.08081C7.70828 2.47166 8.10435 2.78717 8.55507 3.00387C9.00578 3.22057 9.49954 3.33289 9.99963 3.33248C10.4997 3.33289 10.9935 3.22057 11.4442 3.00387C11.8949 2.78717 12.291 2.47166 12.603 2.08081C13.6941 2.43997 14.699 3.02104 15.5546 3.78748C15.3726 4.25285 15.2976 4.75326 15.3354 5.25155C15.3732 5.74985 15.5228 6.23323 15.773 6.66581C16.0226 7.09922 16.3668 7.47077 16.7799 7.75283C17.1929 8.03489 17.6642 8.2202 18.1588 8.29498C18.3926 9.41906 18.3926 10.5792 18.1588 11.7033C17.1921 11.8516 16.3005 12.42 15.773 13.3325C15.5226 13.7652 15.373 14.2487 15.3352 14.7471C15.2974 15.2456 15.3724 15.7462 15.5546 16.2116C14.699 16.9778 13.694 17.5586 12.603 17.9175C12.2909 17.5268 11.8948 17.2114 11.4441 16.9949C10.9934 16.7783 10.4997 16.6661 9.99963 16.6666C9.49954 16.6662 9.00578 16.7786 8.55507 16.9953C8.10435 17.212 7.70828 17.5275 7.3963 17.9183C6.30527 17.5594 5.30032 16.9786 4.44463 16.2125C4.62684 15.747 4.70183 15.2464 4.66404 14.748C4.62624 14.2495 4.47662 13.766 4.2263 13.3333C3.97654 12.9001 3.63234 12.5287 3.21929 12.2468C2.80623 11.9648 2.33495 11.7797 1.84047 11.705C1.60656 10.5806 1.60656 9.42016 1.84047 8.29581C2.33502 8.22103 2.80635 8.03572 3.21942 7.75366C3.63248 7.4716 3.97664 7.10005 4.2263 6.66664C4.47649 6.23406 4.62604 5.75068 4.66384 5.25239C4.70163 4.75409 4.62671 4.25368 4.44463 3.78831V3.78748ZM11.2496 12.1641C11.5362 12.0012 11.7878 11.7831 11.9898 11.5226C12.1918 11.262 12.3403 10.9641 12.4267 10.6459C12.513 10.3277 12.5356 9.99557 12.4931 9.66862C12.4506 9.34167 12.3439 9.02635 12.179 8.74082C12.0142 8.4553 11.7945 8.2052 11.5326 8.00493C11.2707 7.80466 10.9717 7.65817 10.653 7.5739C10.3343 7.48962 10.002 7.46923 9.67532 7.5139C9.34866 7.55856 9.03406 7.6674 8.74963 7.83414C8.18012 8.16802 7.76578 8.71361 7.59704 9.35185C7.4283 9.99009 7.51886 10.6692 7.84895 11.2409C8.17904 11.8126 8.72187 12.2305 9.35897 12.4035C9.99608 12.5765 10.6757 12.4904 11.2496 12.1641Z" fill="white"/>
</svg>
