<svg width="20" height="20" viewBox="0 0 20 20" fill="none" xmlns="http://www.w3.org/2000/svg">
<path fill-rule="evenodd" clip-rule="evenodd" d="M8.08675 10.4526C8.69337 10.7039 9.34355 10.8333 10.0002 10.8333C11.3262 10.8333 12.598 10.3065 13.5357 9.36879C14.4734 8.4311 15.0002 7.15933 15.0002 5.83325C15.0002 4.50717 14.4734 3.2354 13.5357 2.29772C12.598 1.36004 11.3262 0.833252 10.0002 0.833252C9.34355 0.833252 8.69337 0.962581 8.08675 1.21385C7.48012 1.46513 6.92892 1.83343 6.46463 2.29772C6.00034 2.76201 5.63204 3.31321 5.38076 3.91983C5.12949 4.52646 5.00016 5.17664 5.00016 5.83325C5.00016 6.48986 5.12949 7.14004 5.38076 7.74667C5.63204 8.3533 6.00034 8.90449 6.46463 9.36879C6.92892 9.83308 7.48012 10.2014 8.08675 10.4526Z" fill="white"/>
<path opacity="0.4" d="M16.6668 18.3333H3.3335V16.6666C3.3335 15.5615 3.77248 14.5017 4.55388 13.7203C5.33529 12.9389 6.39509 12.4999 7.50016 12.4999H12.5002C13.6052 12.4999 14.665 12.9389 15.4464 13.7203C16.2278 14.5017 16.6668 15.5615 16.6668 16.6666V18.3333Z" fill="white"/>
</svg>
